#!OML:ASF H:\ManfredObstacles\Project 1\Capture day 2\Session 1\male.ASF
:FULLY-SPECIFIED
:DEGREES
432
root 1.22168 11.493 -10.4801 -155.181 8.24207 179.301
lowerback 29.0337 1.07382 -5.96714
upperback 12.838 3.11627 -2.07188
thorax -1.53777 2.64577 0.196963
lowerneck -33.4565 0.36622 2.58201
upperneck 24.7987 -1.08665 1.17203
head 13.9742 0.0172358 -0.161327
rclavicle 1.41137e-014 -2.48729e-014
rhumerus -3.38924 8.95931 -73.8845
rradius 45.1902
rwrist 24.5942
rhand -9.45311 -5.64219
rfingers 7.12502
rthumb 16.5102 -34.9597
lclavicle 1.41137e-014 -2.48729e-014
lhumerus 12.1479 -17.2963 69.0008
lradius 44.5876
lwrist -28.6336
lhand -7.04915 5.5487
lfingers 7.12502
lthumb 18.8235 34.6579
rfemur -37.7729 -0.97086 17.1432
rtibia 103.554
rfoot 7.6529 -5.37815
rtoes -24.8483
lfemur -88.2704 1.22376 -27.7684
ltibia 103.169
lfoot -7.08224 30.3242
ltoes -18.1294
433
root 1.20502 11.5895 -10.6754 -154.745 7.98713 179.438
lowerback 28.4252 0.905199 -5.76223
upperback 12.5072 2.81407 -2.05735
thorax -1.63185 2.45249 0.20109
lowerneck -33.5135 0.434548 2.6428
upperneck 24.8894 -1.02377 1.17902
head 14.0242 0.0544006 -0.15462
rclavicle -1.49089e-015 -3.79679e-014
rhumerus -5.64138 9.45964 -74.3291
rradius 46.9381
rwrist 23.5101
rhand -9.54812 -5.48034
rfingers 7.12502
rthumb 16.4188 -34.8055
lclavicle -1.49089e-015 -3.79679e-014
lhumerus 11.0897 -17.4677 69.2553
lradius 46.0877
lwrist -28.2496
lhand -7.42152 5.55275
lfingers 7.12502
lthumb 18.4654 34.6963
rfemur -38.5747 -0.527859 17.2123
rtibia 103.689
rfoot 9.15195 -3.89092
rtoes -24.0339
lfemur -87.2364 0.987074 -27.6579
ltibia 102.658
lfoot -7.22821 30.6482
ltoes -18.5909
434
root 1.19271 11.6869 -10.8715 -154.421 7.69883 179.502
lowerback 27.89 0.726151 -5.61615
upperback 12.193 2.49528 -2.04918
thorax -1.73528 2.25502 0.231022
lowerneck -33.5393 0.51987 2.75667
upperneck 24.9676 -0.954635 1.16413
head 14.0628 0.0960394 -0.164107
rclavicle -2.42517e-014 1.27222e-014
rhumerus -7.91389 9.88582 -74.8489
rradius 48.4962
rwrist 22.749
rhand -9.63821 -5.40399
rfingers 7.12502
rthumb 16.332 -34.7363
lclavicle -2.42517e-014 1.27222e-014
lhumerus 10.0398 -17.6509 69.5061
lradius 47.6417
lwrist -27.9524
lhand -7.85119 5.58318
lfingers 7.12502
lthumb 18.052 34.7654
rfemur -39.3967 -0.227863 17.2787
rtibia 104.024
rfoot 10.0259 -3.15283
rtoes -23.4163
lfemur -86.0794 0.705583 -27.5632
ltibia 102.104
lfoot -7.30247 30.8903
ltoes -19.0765
435
root 1.18582 11.7861 -11.0676 -154.194 7.43003 179.502
lowerback 27.4038 0.566591 -5.58352
upperback 11.9065 2.1887 -2.04168
thorax -1.82648 2.06505 0.317767
lowerneck -33.5835 0.609591 2.88282
upperneck 25.0486 -0.887787 1.15335
head 14.1063 0.138817 -0.174286
rclavicle 1.98785e-015 1.61016e-014
rhumerus -10.1644 10.2444 -75.416
rradius 49.8582
rwrist 22.2822
rhand -9.67884 -5.44154
rfingers 7.12502
rthumb 16.2929 -34.777
lclavicle 1.98785e-015 1.61016e-014
lhumerus 9.0398 -17.8305 69.7596
lradius 49.2285
lwrist -27.7569
lhand -8.35125 5.64962
lfingers 7.12502
lthumb 17.5708 34.8756
rfemur -40.2842 -0.0230121 17.3436
rtibia 104.55
rfoot 10.2634 -3.20046
rtoes -23.0463
lfemur -84.8041 0.443236 -27.5008
ltibia 101.492
lfoot -7.33071 31.0651
ltoes -19.5639
436
root 1.18403 11.8877 -11.2629 -154.047 7.18357 179.439
lowerback 26.9543 0.427551 -5.65894
upperback 11.6496 1.89801 -2.03599
thorax -1.89777 1.88447 0.456934
lowerneck -33.6231 0.706668 3.03029
upperneck 25.1097 -0.81817 1.13283
head 14.1405 0.182945 -0.191358
rclavicle -1.78906e-014 2.88238e-014
rhumerus -12.3832 10.5108 -76.0189
rradius 51.0149
rwrist 22.0587
rhand -9.68822 -5.55587
rfingers 7.12502
rthumb 16.2839 -34.8921
lclavicle -1.78906e-014 2.88238e-014
lhumerus 8.10931 -17.9873 70.0379
lradius 50.831
lwrist -27.6732
lhand -8.89574 5.74504
lfingers 7.12502
lthumb 17.0468 35.0171
rfemur -41.2587 0.0951057 17.4013
rtibia 105.236
rfoot 10.005 -3.96831
rtoes -22.8278
lfemur -83.4164 0.211298 -27.4805
ltibia 100.806
lfoot -7.3439 31.181
ltoes -20.0441
